<?xml version="1.0" encoding="UTF-8" standalone="no"?>
<svg
   version="1.1"
   id="crowdin-icon"
   width="26"
   height="26"
   x="0px"
   y="0px"
   viewBox="0 0 26 26"
   fill="#000000"
   xml:space="preserve"
   sodipodi:docname="crowdin-icon.svg"
   inkscape:version="1.1.1 (1:1.1+202109281949+c3084ef5ed)"
   xmlns:inkscape="http://www.inkscape.org/namespaces/inkscape"
   xmlns:sodipodi="http://sodipodi.sourceforge.net/DTD/sodipodi-0.dtd"
   xmlns="http://www.w3.org/2000/svg"
   xmlns:svg="http://www.w3.org/2000/svg"><defs
   id="defs7" /><sodipodi:namedview
   id="namedview5"
   pagecolor="#505050"
   bordercolor="#ffffff"
   borderopacity="1"
   inkscape:pageshadow="0"
   inkscape:pageopacity="0"
   inkscape:pagecheckerboard="1"
   showgrid="false"
   inkscape:zoom="9.2513137"
   inkscape:cx="-11.133554"
   inkscape:cy="26.428679"
   inkscape:window-width="1888"
   inkscape:window-height="1060"
   inkscape:window-x="32"
   inkscape:window-y="0"
   inkscape:window-maximized="1"
   inkscape:current-layer="crowdin-icon" /> <rect
   style="fill:#2e3340;fill-opacity:1;stroke-width:1.07508;stroke-linecap:round;paint-order:stroke markers fill"
   id="rect846"
   width="26"
   height="26"
   x="0"
   y="0"
   rx="5.9583335"
   ry="5.9583335" /><path
   d="m 16.8,18.4 c -0.6,0 -1.1,-0.2 -1.5,-0.5 -0.5,-0.4 -0.9,-1 -0.9,-1.7 0,-0.4 0.4,-0.4 0.4,-0.4 h 0.9 c 0.3,0 0.4,0.4 0.4,0.5 0.1,1 0.7,1.4 1.1,1.6 0.2,0.1 0.1,0.5 -0.4,0.5 z M 11.6,13.5 9.8,13.3 C 9,13 9,12.3 9.1,12.1 c 0.1,-0.7 0.4,-1.4 0.7,-2 0.5,-0.7 1.2,-1.4 2.1,-1.9 1.7,-1 4.1,-1.6 6.7,-1.6 1.9,0 3.9,0.3 3.9,0.3 0.2,0 0.3,0.2 0.3,0.4 0,0.2 -0.1,0.4 -0.3,0.4 h -0.8 c -2.7,0 -4.6,0.4 -6,1.2 -1.4,0.8 -2.4,2 -3,3.7 -0.1,0.1 -0.3,1 -1.1,0.9 z m 2.3,7.3 c -1.3,0 -2.6,-0.6 -3.5,-1.6 C 9.6,18.3 9.1,17.4 9,16.3 c -0.1,-0.8 0.3,-1 0.7,-1 l 1.8,0.2 c 0.4,0.1 0.7,0.3 0.8,0.8 0.4,2.5 1.9,3.5 2.9,3.8 0.2,0 0.3,0.1 0.3,0.3 0,0.2 -0.1,0.3 -0.3,0.4 -0.5,0 -0.9,0 -1.3,0 z M 10.1,23 C 9.4,23 8.7,22.9 8,22.8 6.9,22.6 6,22.3 5.2,21.7 3.3,20.5 2.2,18.3 2,15.8 2,15.2 1.9,14 3.3,14.1 c 0.6,0 1.5,0.3 2.2,0.5 0.8,0.2 1.2,0.9 1.2,1.5 0,3.6 3.2,6 4.6,6 0.6,0 0.4,0.7 0.1,0.7 C 11,23 10.4,23 10.1,23 Z M 5.2,12.5 C 4.6,12.4 4.1,12.2 3.6,12 2,11.6 2.3,9.9 2.4,9.5 3.9,5.1 8.6,3.6 12.4,3.2 16,2.8 19.7,3.1 23.2,4.1 c 0.3,0.1 1.2,0.3 0.7,0.8 -0.3,0.3 -1.6,0 -1.9,0 C 20,4.7 17.9,4.7 15.9,5 13.7,5.3 11.5,6 9.8,7.5 8.8,8.2 7.3,10.7 7.3,11 7.2,11.3 6.8,12.7 5.2,12.5 Z m 9.1,0.8 c 0.3,-1.4 1.7,-3.6 5.9,-3.4 1,0 0.5,0.7 0,0.7 -2.4,-0.1 -3.5,1.5 -4.1,3 -0.2,0.5 -0.6,0.6 -1.2,0.5 C 14.6,14 14.2,14 14.3,13.3 Z"
   id="path2"
   style="fill:#ffffff;fill-opacity:1" /> </svg>
