<?xml version="1.0" encoding="UTF-8" standalone="no"?>
<!-- Generator: Adobe Illustrator 24.0.0, SVG Export Plug-In . SVG Version: 6.00 Build 0)  -->

<svg
   version="1.1"
   id="Layer_1"
   x="0px"
   y="0px"
   viewBox="0 0 156.688 32"
   xml:space="preserve"
   sodipodi:docname="crowdin.svg"
   width="156.688"
   height="32"
   inkscape:version="1.1.1 (1:1.1+202109281949+c3084ef5ed)"
   xmlns:inkscape="http://www.inkscape.org/namespaces/inkscape"
   xmlns:sodipodi="http://sodipodi.sourceforge.net/DTD/sodipodi-0.dtd"
   xmlns="http://www.w3.org/2000/svg"
   xmlns:svg="http://www.w3.org/2000/svg"><defs
   id="defs15" /><sodipodi:namedview
   id="namedview13"
   pagecolor="#505050"
   bordercolor="#ffffff"
   borderopacity="1"
   inkscape:pageshadow="0"
   inkscape:pageopacity="0"
   inkscape:pagecheckerboard="1"
   showgrid="false"
   inkscape:zoom="7.6242424"
   inkscape:cx="71.416932"
   inkscape:cy="-0.19674086"
   inkscape:window-width="1888"
   inkscape:window-height="1060"
   inkscape:window-x="32"
   inkscape:window-y="0"
   inkscape:window-maximized="1"
   inkscape:current-layer="Layer_1" />
<style
   type="text/css"
   id="style2">
	.st0{fill:#2E3340;}
</style>
<rect
   style="fill:#ffffff;stroke:#404040;stroke-width:2;stroke-linecap:round;stroke-miterlimit:4;stroke-dasharray:none;stroke-opacity:1;paint-order:stroke markers fill"
   id="rect854"
   width="154.688"
   height="30"
   x="1"
   y="1"
   rx="3"
   ry="3" /><path
   class="st0"
   d="m 42.25,20.03125 c -0.796875,0 -1.3125,0 -1.3125,-0.609375 0,-0.140625 0.04687,-0.328125 0.140625,-0.5625 L 43.46875,13.5625 h 7.6875 c 0.796875,0 1.265625,-0.04687 1.265625,0.5625 0,0.1875 -0.04684,0.375 -0.140625,0.5625 l -0.46875,1.03125 h 3.234375 l 0.65625,-1.453125 c 0.09375,-0.234375 0.09375,-0.421875 0.09375,-0.609375 0,-1.3125 -1.40625,-1.96875 -2.53125,-1.96875 h -12.1875 L 37.65625,19.234375 C 37.5625,19.46875 37.5625,19.65625 37.5625,19.84375 c 0,1.40625 1.171875,2.109375 2.8125,2.109375 h 12.046875 l 0.75,-1.921875 z M 67.65625,11.640625 H 58.5625 l -4.125,10.3125 h 3.28125 L 61,13.609375 h 5.015625 c 0.796875,0 1.21875,-0.09375 1.21875,0.515625 0,0.1875 -0.04685,0.375 -0.140625,0.5625 L 66.625,15.71875 h 3.28125 l 0.65625,-1.453125 c 0.09375,-0.234375 0.09375,-0.421875 0.09375,-0.609375 0,-0.609375 -0.328125,-1.125 -1.03125,-1.5 -0.5625,-0.28125 -1.3125,-0.515625 -1.96875,-0.515625 z m 18.046875,0 H 73.046875 L 69.625,19.1875 c -0.09375,0.1875 -0.09375,0.375 -0.09375,0.609375 0,1.171875 0.84375,2.109375 1.921875,2.109375 H 84.25 l 3.46875,-7.734375 C 87.8125,13.9375 87.8125,13.75 87.8125,13.5625 c 0,-1.21875 -1.03125,-1.921875 -2.109375,-1.921875 z m -3.984375,8.4375 h -7.640625 c -0.796875,0 -1.171875,-0.09375 -1.171875,-0.703125 0,-0.1875 0.04685,-0.375 0.140625,-0.5625 l 2.484375,-5.296875 h 7.6875 c 0.75,0 1.125,-0.04687 1.125,0.5625 0,0.1875 -0.04685,0.375 -0.140625,0.609375 z m 8.296875,1.875 H 107.07813 L 111.48438,11.6875 h -3.375 l -3.65625,8.34375 H 98.96875 L 102.625,11.640625 H 99.25 l -3.796875,8.34375 h -3.75 c -0.796875,0 -1.21875,-0.09375 -1.21875,-0.703125 0,-0.1875 0.04685,-0.375 0.140625,-0.5625 l 3.140625,-7.125 h -3.28125 L 87.203125,19 c -0.65625,2.015625 1.3125,2.953125 2.8125,2.953125 z m 40.359375,-14.0625 -3.51562,0.9375 -1.17188,2.8125 h -8.67187 c -2.10938,0 -3.98438,0.9375 -4.92188,2.8125 l -2.34375,5.625 c -0.46875,0.9375 0.375,1.875 1.96875,1.875 h 12.5625 z m -16.40625,12.1875 c -0.70312,0 -1.03125,-0.46875 -0.9375,-0.9375 l 2.0625,-4.5 c 0.46875,-1.078125 1.59375,-1.125 2.625,-1.125 H 124.75 l -2.8125,6.5625 z m 15.9375,1.875 4.45312,-10.546875 -3.75,0.703125 -4.21874,9.84375 z m 5.01562,-11.859375 0.98438,-2.203125 -3.70313,0.75 -0.9375,2.203125 z m 13.21875,1.546875 H 136 l -4.21875,10.3125 h 3.28125 l 3.28125,-8.4375 h 8.01562 c 0.79688,0 1.21875,-0.04687 1.21875,0.609375 0,0.1875 -0.0468,0.375 -0.14062,0.5625 L 144.15625,22 h 3.28125 l 3.46875,-7.734375 c 0.0937,-0.1875 0.0937,-0.375 0.0937,-0.609375 0,-0.609375 -0.32813,-1.125 -1.03125,-1.5 -0.51563,-0.28125 -1.125,-0.515625 -1.82813,-0.515625 z"
   id="path4"
   style="stroke-width:0.46875" />
<path
   class="st0"
   d="m 33.484375,12.15625 c -5.15625,-0.609375 -9.796875,0.421875 -10.453125,3.65625 0,0.140625 -0.09375,0.75 -0.09375,0.84375 L 23.78125,16.75 c 0,0.140625 0,0.328125 0,0.46875 0,0.28125 0,0.5625 0,0.84375 l -0.796875,-0.09375 c 0.328125,3.328125 2.15625,4.3125 4.078125,4.359375 h 0.140625 c 0.84375,0.04687 1.734375,-0.140625 2.484375,-0.46875 0.04687,0 0.04687,-0.04687 0.04687,-0.04687 0,-0.04687 0,-0.04687 0,-0.09375 0,-0.04687 -0.04687,-0.04687 -0.04687,-0.09375 -0.04687,0 -0.04687,-0.04687 -0.09375,-0.04687 -1.78125,0.234375 -3.421875,-1.21875 -3.421875,-4.171875 0,-3.703125 2.90625,-5.0625 7.3125,-5.0625 0.140625,0.09375 0.1875,-0.140625 0,-0.1875 z m -9.5625,6.703125 c 0.46875,0 0.890625,0.09375 1.3125,0.140625 0.140625,0.984375 0.609375,1.921875 1.3125,2.578125 -0.703125,-0.09375 -1.3125,-0.421875 -1.828125,-0.890625 -0.421875,-0.515625 -0.703125,-1.125 -0.796875,-1.828125 z M 25.515625,15.625 c 0,0.140625 -0.09375,0.328125 -0.140625,0.5625 h -0.609375 c -0.328125,0 -0.609375,-0.04687 -0.9375,-0.09375 0,-0.04687 0,-0.04687 0,-0.09375 0.375,-2.015625 2.390625,-2.8125 4.3125,-3.1875 C 27.53125,13.046875 26.96875,13.421875 26.5,13.890625 26.03125,14.40625 25.703125,14.96875 25.515625,15.625 Z"
   id="path6"
   style="stroke-width:0.46875" />
<path
   class="st0"
   d="M 35.5,9.203125 C 31.609375,8.125 15.25,6.8125 15.25,15.90625 c 0.5625,0.09375 0.9375,0.1875 1.21875,0.234375 -0.04687,0.703125 0,1.453125 0,2.15625 L 15.015625,18.0625 c 0,5.25 3.84375,6.9375 6.890625,6.9375 0.515625,0 0.984375,-0.04687 1.5,-0.09375 1.265625,-0.140625 2.484375,-0.515625 3.5625,-1.125 0.04687,0 0.04687,-0.04687 0.04687,-0.04687 0,-0.04687 0,-0.04687 0,-0.09375 0,-0.04687 -0.04687,-0.04687 -0.04687,-0.09375 -0.04687,0 -0.04687,-0.04687 -0.09375,-0.04687 -2.578125,0.515625 -6.046875,-0.1875 -6.046875,-6.28125 0,-8.109375 11.390625,-7.59375 14.71875,-7.734375 0.04687,0 0.04687,-0.04687 0.04687,-0.04687 0,-0.04687 0,-0.04687 0,-0.09375 0,-0.04687 0,-0.04687 -0.04687,-0.09375 0,-0.04687 0,-0.04687 -0.04687,-0.04687 z M 21.90625,24.25 C 20.453125,24.34375 19,23.875 17.875,22.890625 16.75,21.90625 16.046875,20.546875 15.90625,19.09375 c 0.984375,0.140625 2.203125,0.234375 3.234375,0.28125 0.04687,1.03125 0.375,2.015625 0.9375,2.859375 0.5625,0.84375 1.3125,1.546875 2.203125,2.015625 z M 19.234375,15.671875 17.6875,15.53125 16.140625,15.34375 c 0,-4.734375 7.59375,-6.5625 11.109375,-6.234375 -3.515625,0.796875 -7.78125,2.4375 -8.015625,6.5625 z"
   id="path8"
   style="stroke-width:0.46875" />
<path
   class="st0"
   d="M 37.515625,6.484375 C 32.78125,4.890625 27.390625,4.09375 22.375,4.140625 c -7.265625,0 -16.453125,2.15625 -16.6875,9.5625 l 1.96875,0.46875 c -0.234375,0.9375 -0.234375,2.859375 -0.234375,2.859375 0,0 -1.125,-0.328125 -1.734375,-0.46875 0,8.8125 5.15625,11.015625 10.125,11.015625 2.015625,0 3.984375,-0.328125 5.859375,-1.03125 0.04687,0 0.04687,-0.04687 0.04687,-0.04687 0,-0.04687 0,-0.04687 0,-0.09375 0,-0.04687 -0.04687,-0.04687 -0.04687,-0.09375 0,0 -0.04687,0 -0.09375,0 -1.546875,0 -2.765625,0.515625 -5.203125,-1.21875 C 11.640625,21.76563 12.203125,13.14063 17.640625,9.39063 c 5.625,-3.984375 17.71875,-2.71875 19.78125,-2.625 0,0 0.04687,0 0.04687,0 0,0 0.04687,0 0.04687,0 0,0 0.04687,0 0.04687,-0.046875 0,0 0,-0.046875 0,-0.046875 0,0 0,-0.046875 0,-0.046875 0,0 0,-0.046875 0,-0.046875 0,-0.046875 0,-0.046875 -0.04687,-0.09375 0,0.046875 0,0.046875 0,0 z M 15.859375,26.875 c -5.90625,0 -8.90625,-3.1875 -9.1875,-9.28125 1.59375,0.421875 3.09375,0.796875 4.734375,1.03125 -0.09375,2.390625 0.75,4.734375 2.390625,6.5625 0.84375,0.796875 1.875,1.40625 3,1.734375 z m 13.3125,-21.328125 c -7.171875,0 -15.46875,0.84375 -17.109375,8.671875 0,0 -4.40625,-0.703125 -5.390625,-0.9375 1.21875,-9.84375 18.1875,-9.09375 25.03125,-7.734375 z"
   id="path10"
   style="stroke-width:0.46875" />
</svg>
