<?xml version="1.0" encoding="UTF-8" standalone="no"?>
<!-- Created with Inkscape (http://www.inkscape.org/) -->

<svg
   version="1.1"
   id="svg2"
   xml:space="preserve"
   width="104.67052"
   height="32"
   viewBox="0 0 104.67052 31.999999"
   sodipodi:docname="freelancer.svg"
   inkscape:version="1.1.1 (1:1.1+202109281949+c3084ef5ed)"
   xmlns:inkscape="http://www.inkscape.org/namespaces/inkscape"
   xmlns:sodipodi="http://sodipodi.sourceforge.net/DTD/sodipodi-0.dtd"
   xmlns="http://www.w3.org/2000/svg"
   xmlns:svg="http://www.w3.org/2000/svg"><defs
     id="defs6" /><sodipodi:namedview
     id="namedview4"
     pagecolor="#505050"
     bordercolor="#ffffff"
     borderopacity="1"
     inkscape:pageshadow="0"
     inkscape:pageopacity="0"
     inkscape:pagecheckerboard="1"
     showgrid="false"
     inkscape:zoom="9.0562156"
     inkscape:cx="47.812466"
     inkscape:cy="-37.377644"
     inkscape:window-width="1888"
     inkscape:window-height="1060"
     inkscape:window-x="32"
     inkscape:window-y="0"
     inkscape:window-maximized="1"
     inkscape:current-layer="g10" /><g
     id="g8"
     inkscape:groupmode="layer"
     inkscape:label="ink_ext_XXXXXX"
     transform="matrix(1.3333333,0,0,-1.3333333,18.045648,164.00859)"><g
       id="g10"
       transform="scale(0.1)"><rect
         style="fill:#ffffff;stroke:#404040;stroke-width:15;stroke-linecap:round;stroke-miterlimit:4;stroke-dasharray:none;paint-order:stroke markers fill"
         id="rect954"
         width="770.03253"
         height="225"
         x="-127.84236"
         y="-1222.5645"
         transform="scale(1,-1)"
         rx="22.5"
         ry="22.5" /><path
         d="m -32.167986,1104.1156 31.90854058,-34.2773 35.19877742,34.5021 10.92257,64.2665 -42.8930508,2.1879 m -39.0700222,-62.6844 33.7795251,63.0189 -98.0981841,5.3015 m 39.840121,19.854 8.296035,-17.0053 45.7230604,-2.8487 m 35.7828886,19.854 -23.0996528,-20.8307 38.8524908,-1.4506 m -92.221612,-150.1591 43.220408,42.256 -26.01334,27.9152 m 65.805409,102.2692 15.791081,-22.1472 79.897281,22.1472"
         style="fill:#61afe4;fill-opacity:1;fill-rule:nonzero;stroke:none;stroke-width:0.163319"
         id="path12" /><path
         d="m 574.43684,1131.8148 -10.25217,-64.4823 c -0.19939,-1.2705 -1.32217,-2.5346 -2.70482,-2.5346 h -17.26836 c -1.38264,0 -2.33219,1.2641 -2.13117,2.5314 l 6.8021,42.66 25.55605,21.8204 z m -52.98833,-27.1757 c 1.09827,6.9092 -1.01002,11.0552 -6.77103,11.0552 -5.52077,0 -9.17188,-4.1486 -10.26688,-11.0552 l -0.0539,-0.3447 h 17.03791 z m 16.7846,-12.5514 H 502.4249 l -0.0343,-0.2287 c -0.96915,-6.1034 0.9659,-9.9 9.368,-9.9 6.1026,0 17.47428,0.5714 22.021,0.9224 1.85986,0.1182 2.49398,-0.2265 2.22269,-1.9554 l -1.64414,-10.3662 c -0.28601,-1.8419 -0.87764,-2.6465 -2.81268,-3.2259 -7.74675,-2.4211 -15.87755,-3.5702 -25.54625,-3.5702 -15.54414,0 -28.64005,8.1762 -25.15891,30.1671 l 1.20613,7.5993 c 3.20819,20.2643 16.69961,31.3188 35.58432,31.3188 20.14315,0 27.4486,-12.7782 24.51007,-31.3156 l -1.09662,-6.9143 c -0.23698,-1.4926 -1.43986,-2.5268 -2.81924,-2.5268 z m -67.57801,-26.484 c -4.05968,-0.9207 -9.2732,-1.84 -16.06221,-1.84 -17.61647,0 -25.7293,11.2823 -22.73848,30.1671 l 1.36958,8.6348 c 2.97448,18.7693 14.69919,30.2833 32.31239,30.2833 6.79391,0 12.38496,-1.0315 15.48202,-1.8353 1.43985,-0.348 2.15406,-0.9253 1.91707,-2.4224 l -2.06089,-13.0117 c -0.219,-1.383 -1.07212,-2.4172 -2.76528,-2.1861 -3.86194,0.3409 -7.47054,0.8039 -13.11063,0.8039 -4.94875,0 -8.32038,-3.1118 -9.67034,-11.6349 l -1.36794,-8.6297 c -1.34832,-8.5231 1.05742,-11.5141 6.00782,-11.5141 5.6368,0 9.35818,0.2279 13.34922,0.6908 1.76509,0.2267 2.30767,-0.6908 2.07397,-2.188 l -2.04619,-12.8982 c -0.23697,-1.5015 -1.13586,-2.0729 -2.69174,-2.4208 z m -51.07616,-0.8058 h -17.26835 c -1.38264,0 -2.33056,1.2641 -2.13117,2.5314 l 6.18105,39.0369 c 0.96589,6.1021 -0.67989,8.057 -5.86399,8.057 -2.64598,0 -6.14999,-1.0324 -9.01497,-2.4177 l -7.07503,-44.6762 c -0.19939,-1.2673 -1.32217,-2.5314 -2.70481,-2.5314 h -17.26836 c -1.38428,0 -2.33219,1.2641 -2.13281,2.5314 l 9.84522,62.1799 c 0.20265,1.268 1.40062,2.3056 2.66887,2.3056 h 16.00175 c 1.26987,0 2.13934,-1.035 1.93995,-2.3056 l -0.42003,-2.6462 c 6.82987,4.6063 13.47835,5.8742 19.92905,5.8742 18.07081,0 18.37153,-12.6665 16.20113,-26.3666 l -6.18104,-39.0381 c -0.20266,-1.2705 -1.32544,-2.5366 -2.70646,-2.5366 z m -81.2067,27.7494 h -5.64007 c -5.75612,0 -8.34981,-1.8418 -9.11467,-6.6748 l -0.18305,-1.1542 c -0.62105,-3.9169 1.84516,-5.0673 5.06643,-5.0673 2.76692,0 6.00126,0.8108 8.10629,1.7251 z m 14.71716,-27.7494 h -16.00338 c -1.26333,0 -2.1377,1.0343 -1.93668,2.3028 l 0.38571,2.4185 c -4.88665,-3.2242 -11.04318,-5.7555 -17.37459,-5.7555 -9.09506,0 -18.88471,5.066 -16.42504,20.6097 l 0.21899,1.3822 c 2.18838,13.8176 13.45057,18.7687 32.67521,18.7687 h 4.95367 l 0.52789,3.3389 c 0.89398,5.6394 -0.78612,6.6749 -6.5406,6.6749 -6.44907,0 -16.90227,-0.5727 -20.1644,-0.8064 -1.97263,-0.1142 -2.38285,0.9226 -2.16876,2.3054 l 1.77162,11.1662 c 0.27457,1.7264 1.28785,2.3009 2.74242,2.7663 3.9796,1.1486 14.13533,2.765 21.50617,2.765 16.69634,0 27.94871,-5.9909 24.95952,-24.8744 l -6.45562,-40.7608 c -0.20265,-1.2692 -1.40551,-2.3035 -2.67049,-2.3035 z m -61.18776,0 h -17.3844 c -1.2666,0 -2.33055,1.2641 -2.12953,2.5314 l 13.33125,84.1747 c 0.19939,1.2634 1.62943,2.3009 2.89441,2.3009 h 17.38766 c 1.2666,0 2.1377,-1.0331 1.93668,-2.2984 l -13.33125,-84.174 c -0.19939,-1.2642 -1.43658,-2.5315 -2.70156,-2.5315 z m -40.14901,39.8412 c 1.095,6.9092 -1.01164,11.0552 -6.76613,11.0552 -5.52568,0 -9.17841,-4.1486 -10.27015,-11.0552 l -0.0539,-0.3447 h 17.03465 z m 16.78133,-12.5514 h -35.80659 l -0.0326,-0.2287 c -0.96754,-6.1034 0.96588,-9.9 9.36799,-9.9 6.10423,0 17.47428,0.5714 22.021,0.9224 1.85986,0.1182 2.49889,-0.2265 2.22432,-1.9554 l -1.63923,-10.3662 c -0.29256,-1.8419 -0.88254,-2.6465 -2.81433,-3.2259 -7.75164,-2.4211 -15.8759,-3.5702 -25.54787,-3.5702 -15.54251,0 -28.63842,8.1762 -25.15565,30.1671 l 1.2045,7.5993 c 3.20983,20.2643 16.70451,31.3188 35.58595,31.3188 20.14968,0 27.44862,-12.7782 24.51499,-31.3156 l -1.09174,-6.9143 c -0.23861,-1.4926 -1.44149,-2.5268 -2.82249,-2.5268 z m -80.50394,12.5514 c 1.09663,6.9092 -1.01329,11.0552 -6.77104,11.0552 -5.52568,0 -9.17351,-4.1486 -10.26687,-11.0552 l -0.0523,-0.3447 h 17.0379 l 0.0539,0.3447 z m 16.77806,-12.5514 h -35.80659 l -0.0343,-0.2287 c -0.96751,-6.1034 0.96589,-9.9 9.36963,-9.9 6.10259,0 17.47428,0.5714 22.01936,0.9224 1.85988,0.1182 2.494,-0.2265 2.21779,-1.9554 l -1.6376,-10.3662 c -0.29091,-1.8419 -0.88254,-2.6465 -2.81269,-3.2259 -7.75327,-2.4211 -15.87753,-3.5702 -25.54951,-3.5702 -15.5425,0 -28.63677,8.1762 -25.15401,30.1671 l 1.20287,7.5993 c 3.20656,20.2643 16.6996,31.3188 35.58268,31.3188 20.14968,0 27.44861,-12.7782 24.51335,-31.3156 l -1.095,-6.9143 c -0.23862,-1.4926 -1.44312,-2.5268 -2.82249,-2.5268 z m -57.84884,22.569 h -1.60817 c -4.95204,0 -9.78148,-0.6913 -13.65976,-2.6461 l -7.07666,-44.6767 c -0.20102,-1.2707 -1.32379,-2.5329 -2.70481,-2.5329 h -17.27 c -1.38264,0 -2.33055,1.2622 -2.13116,2.5315 l 9.84685,62.1743 c 0.20102,1.2704 1.05578,2.308 2.66887,2.308 h 16.57702 c 1.61309,0 2.21289,-0.5772 1.93833,-2.3056 l -0.43638,-2.7604 c 6.03886,5.4112 10.27505,5.9884 16.37765,5.9884 1.9563,0 2.2276,-0.4603 1.93668,-2.3053 l -2.22596,-14.0467 c -0.21573,-1.3829 -0.73381,-1.7285 -2.23086,-1.7285 z m -43.67262,0.8065 h -8.750216 l -7.66175,-48.3625 c -0.199388,-1.2685 -1.398989,-2.3028 -2.670499,-2.3028 H 66.706993 c -1.268241,0 -2.137706,1.0343 -1.938318,2.3028 l 10.742466,67.825 c 2.717895,17.1528 11.376589,20.9553 23.235303,20.9553 3.683776,0 7.544086,-0.3479 10.561056,-0.9226 1.34506,-0.2311 2.25375,-1.0373 2.05108,-2.3027 l -1.73402,-10.9428 c -0.19939,-1.2634 -1.38264,-2.186 -2.7653,-2.186 h -4.83108 c -2.878056,0 -3.866827,-1.1491 -4.411059,-4.6062 l -0.493569,-3.1059 h 8.748578 c 1.26824,0 2.13935,-1.035 1.93832,-2.3056 l -1.85823,-11.7431 c -0.20593,-1.2693 -1.40716,-2.3029 -2.67051,-2.3029 h 0.005"
         style="fill:#191e26;fill-opacity:1;fill-rule:nonzero;stroke:none;stroke-width:0.163319"
         id="path14" /><path
         d="m 580.32207,1131.8148 -3.53833,-22.1243 37.97698,22.1243"
         style="fill:#61afe4;fill-opacity:1;fill-rule:nonzero;stroke:none;stroke-width:0.163319"
         id="path16" /></g></g></svg>
