<?xml version="1.0" encoding="UTF-8" standalone="no"?>
<svg
   viewBox="0 0 106.45551 29.999467"
   height="30"
   width="106.45585"
   version="1.1"
   id="svg6"
   sodipodi:docname="itchio.svg"
   inkscape:version="1.1.1 (1:1.1+202109281949+c3084ef5ed)"
   xmlns:inkscape="http://www.inkscape.org/namespaces/inkscape"
   xmlns:sodipodi="http://sodipodi.sourceforge.net/DTD/sodipodi-0.dtd"
   xmlns="http://www.w3.org/2000/svg"
   xmlns:svg="http://www.w3.org/2000/svg">
  <defs
     id="defs10" />
  <sodipodi:namedview
     id="namedview8"
     pagecolor="#505050"
     bordercolor="#ffffff"
     borderopacity="1"
     inkscape:pageshadow="0"
     inkscape:pageopacity="0"
     inkscape:pagecheckerboard="1"
     showgrid="false"
     inkscape:zoom="3.2473733"
     inkscape:cx="26.790883"
     inkscape:cy="31.871913"
     inkscape:window-width="1888"
     inkscape:window-height="1060"
     inkscape:window-x="32"
     inkscape:window-y="0"
     inkscape:window-maximized="1"
     inkscape:current-layer="svg6" />
  <rect
     style="fill:#ffffff;stroke-width:0.133748;stroke-linecap:round;paint-order:stroke markers fill"
     id="rect849"
     width="106.45551"
     height="29.999907"
     x="0"
     y="-0.0014544687"
     rx="2.9999905"
     ry="2.9999905" />
  <path
     d="m 37.152799,23.992168 v -12.42857 h 4.193454 v 12.42857 z M 39.274704,10.55288 q -1.061073,0 -1.641964,-0.530536 -0.555835,-0.5304163 -0.555835,-1.4146433 0,-0.833631 0.555714,-1.414643 0.581012,-0.581012 1.641964,-0.581012 1.061073,0 1.616907,0.581012 0.581012,0.581012 0.581012,1.414643 0,0.884227 -0.581012,1.4146433 -0.555714,0.530536 -1.616666,0.530536 z m 8.328601,13.692269 q -1.819051,0 -2.753875,-0.960121 -0.909284,-0.985058 -0.909284,-2.728214 v -5.886013 h -1.667262 v -3.107444 h 1.667262 V 8.5319267 h 4.193455 v 3.0316713 h 2.728575 v 3.106841 H 48.13336 v 5.279824 q 0,0.581132 0.22744,0.833631 0.25262,0.227441 0.757737,0.227441 0.682205,0 1.490538,-0.60631 l 0.96012,2.753633 q -0.732439,0.505961 -1.667262,0.808333 -0.934823,0.278278 -2.298507,0.278278 z m 10.314376,0 q -2.880003,0 -4.547263,-1.641964 -1.641966,-1.642205 -1.641966,-4.774706 0,-2.273572 0.934583,-3.814584 0.960122,-1.591368 2.400906,-2.147323 1.515473,-0.581012 2.80447,-0.581012 1.616666,0 2.703278,0.656786 1.086611,0.631608 1.591368,1.389465 0.531259,0.757737 0.757736,1.187322 l -2.904458,1.869405 q -0.403564,-0.833631 -0.884226,-1.313692 -0.479458,-0.47994 -1.161302,-0.47994 -0.96012,0 -1.515473,0.757737 -0.555353,0.757978 -0.555353,2.298991 0,1.667262 0.656544,2.450297 0.656546,0.783275 1.869647,0.783275 0.960122,0 1.591368,-0.354172 0.656546,-0.354173 1.23816,-0.909526 l 1.338989,3.13214 q -0.60643,0.504757 -1.793752,1.010718 -1.187323,0.479458 -2.879882,0.479458 z M 64.01933,23.992168 V 7.1171637 h 4.218752 V 12.24544 q 0.530416,-0.378989 1.288273,-0.656785 0.757737,-0.303215 1.819051,-0.303215 2.222976,0 3.309227,1.263697 1.111547,1.263698 1.111547,3.562207 v 7.88215 H 71.547429 V 16.6161 q 0,-1.060109 -0.403564,-1.540772 -0.403564,-0.504756 -1.061314,-0.504756 -0.555352,0 -1.036015,0.252981 -0.479459,0.25298 -0.808333,0.531258 v 8.639887 H 64.01945 Z m 14.986086,0.252981 q -1.010719,0 -1.591609,-0.581012 -0.581013,-0.581012 -0.581013,-1.490417 0,-0.909525 0.581013,-1.515714 0.581011,-0.60631 1.591368,-0.60631 0.96012,0 1.541133,0.60631 0.581855,0.60631 0.581855,1.515714 0,0.909526 -0.580651,1.490417 -0.555352,0.581012 -1.540771,0.581012 z m 3.102023,-0.252981 v -12.42857 h 4.193452 v 12.42857 z M 84.228861,10.55529 q -1.061313,0 -1.642206,-0.530537 -0.555713,-0.5305363 -0.555713,-1.4146433 0,-0.833631 0.555713,-1.414643 0.581013,-0.581011 1.641965,-0.581011 1.061073,0 1.616906,0.581011 0.581013,0.581012 0.581013,1.414643 0,0.884227 -0.581013,1.4146433 -0.555713,0.530537 -1.616665,0.530537 z m 9.477132,13.689859 q -1.465359,0 -2.602085,-0.47994 -1.136848,-0.505238 -1.945181,-1.364167 -0.783034,-0.884228 -1.212618,-2.071549 -0.404167,-1.21262 -0.404167,-2.627384 0,-2.096606 0.909525,-3.662916 0.934583,-1.541013 2.324048,-2.147323 1.414643,-0.60631 2.930358,-0.60631 2.172017,0 3.5863,1.010476 1.439578,1.010477 2.021434,2.526192 0.580651,1.515714 0.580651,2.879881 0,1.414643 -0.430067,2.627384 -0.403564,1.187201 -1.213102,2.071428 -0.783035,0.858929 -1.94554,1.36489 -1.136726,0.480663 -2.602087,0.480663 z m 0,-3.233573 q 1.060952,0 1.540772,-0.884227 0.480061,-0.909525 0.480061,-2.424999 0,-1.440061 -0.505239,-2.29899 -0.504756,-0.858929 -1.515473,-0.858929 -0.98542,0 -1.490177,0.858929 -0.504755,0.858929 -0.504755,2.29887 0,1.515714 0.480663,2.424999 0.505961,0.884227 1.515473,0.884227 z"
     id="path2"
     style="stroke-width:0.120467" />
  <path
     color="#000000"
     d="m 10.033528,3.1644037 c -1.161782,0.689793 -3.450895,3.319706 -3.47282,4.009379 v 1.141786 c 0,1.447289 1.352844,2.7191793 2.580884,2.7191793 1.474514,0 2.703277,-1.2222573 2.703518,-2.6727993 0,1.450421 1.186599,2.6727993 2.661476,2.6727993 1.474756,0 2.623287,-1.2222573 2.623287,-2.6727993 0,1.450421 1.261289,2.6727993 2.735804,2.6727993 h 0.0265 c 1.474515,0 2.737008,-1.2222573 2.737008,-2.6727993 0,1.450421 1.14805,2.6727993 2.622565,2.6727993 1.474515,0 2.661115,-1.2222573 2.661115,-2.6727993 0,1.450421 1.228762,2.6727993 2.703277,2.6727993 1.227558,0 2.580402,-1.2717693 2.580402,-2.7191793 v -1.141786 c -0.02289,-0.689673 -2.31176,-3.319586 -3.473061,-4.009379 -3.610394,-0.126852 -6.114901,-0.148657 -9.845761,-0.148175 -3.729536,2.41e-4 -8.816854,0.05843 -9.844436,0.148175 z m 7.077793,7.1887423 a 3.0429943,3.0429942 0 0 1 -0.518971,0.66811 3.0825074,3.0825073 0 0 1 -2.161177,0.881817 c -0.841461,0 -1.608956,-0.337307 -2.165513,-0.882058 -0.20118,-0.197566 -0.354173,-0.408865 -0.495119,-0.654858 v 4.81e-4 c -0.139742,0.246476 -0.336103,0.457534 -0.537283,0.65534 a 3.0916629,3.0916628 0 0 1 -2.16479,0.881457 c -0.101192,0 -0.205998,-0.02771 -0.29153,-0.05662 -0.118058,1.234786 -0.168654,2.414157 -0.186001,3.275495 v 0.0048 c -0.0024,0.437295 -0.0042,0.796287 -0.0065,1.29502 0.02289,2.591243 -0.256595,8.396543 1.142026,9.822871 2.1672,0.505961 6.155137,0.736053 10.156566,0.737258 h 3.62e-4 c 4.001188,-0.0012 7.989364,-0.231297 10.156565,-0.736053 1.39862,-1.426569 1.119138,-7.231869 1.142026,-9.822269 -0.002,-0.498733 -0.0041,-0.857966 -0.0064,-1.29502 v -0.0048 c -0.01807,-0.860374 -0.06806,-2.040107 -0.186724,-3.274651 -0.08553,0.02891 -0.191181,0.05698 -0.292736,0.05698 a 3.0935904,3.0935903 0 0 1 -2.165393,-0.881335 c -0.201782,-0.198169 -0.397539,-0.409227 -0.537642,-0.65534 l -6.02e-4,-8.44e-4 c -0.140587,0.245753 -0.293699,0.457413 -0.495481,0.654858 -0.556557,0.544511 -1.323931,0.881818 -2.165152,0.881818 -0.84122,0 -1.604619,-0.337307 -2.161177,-0.881818 a 3.0632326,3.0632326 0 0 1 -0.519213,-0.668109 3.0339593,3.0339592 0 0 1 -0.51391,0.668109 3.0927471,3.092747 0 0 1 -2.165995,0.881818 c -0.02939,0 -0.05903,-0.0012 -0.08794,-0.0024 h -9.64e-4 c -0.02927,0.0012 -0.05855,0.0024 -0.08794,0.0024 -0.841581,0 -1.609076,-0.337307 -2.165754,-0.881818 a 3.0309476,3.0309475 0 0 1 -0.514393,-0.667868 z m -2.22406,2.875907 -2.41e-4,9.63e-4 h 0.0024 c 0.880614,0.0019 1.663649,0 2.632202,1.058061 0.763761,-0.07987 1.560048,-0.119985 2.358742,-0.11866 h 0.0012 c 0.798696,-0.0012 1.594983,0.03975 2.358743,0.119263 0.969759,-1.0577 1.751589,-1.055291 2.632202,-1.0577 h 0.0024 v -0.0012 c 0.416816,0 2.080464,0 3.24056,3.257425 l 1.246592,4.469323 c 0.923379,3.324887 -0.295506,3.406804 -1.815798,3.409213 -2.255141,-0.08312 -3.503178,-1.721472 -3.503178,-3.358617 -1.248037,0.204794 -2.704482,0.307191 -4.160324,0.307191 h -6.03e-4 c -1.455962,0 -2.911925,-0.102397 -4.159722,-0.307191 0,1.637145 -1.248037,3.274291 -3.502937,3.358617 -1.520292,-0.0024 -2.739417,-0.08433 -1.815797,-3.408009 l 1.245627,-4.469322 c 1.160096,-3.257425 2.824949,-3.257425 3.240559,-3.257425 z m 4.992148,2.559921 v 8.43e-4 c -0.002,0.0021 -2.373438,2.17997 -2.79965,2.954572 l 1.552819,-0.06216 v 1.354048 c 0,0.06349 0.623295,0.03771 1.246831,0.0089 h 8.44e-4 c 0.623658,0.02891 1.246833,0.05457 1.246833,-0.0088 v -1.354048 l 1.552819,0.06192 c -0.426212,-0.774602 -2.799652,-2.954451 -2.799652,-2.954451 v -7.23e-4 l -2.41e-4,2.41e-4 z"
     id="path4"
     style="stroke-width:0.120467" />
</svg>
