<?xml version="1.0" encoding="UTF-8" standalone="no"?>
<svg
   width="119.58519"
   height="32"
   viewBox="0 0 119.58519 32"
   version="1.1"
   preserveAspectRatio="xMidYMid"
   id="svg22"
   sodipodi:docname="poeditor-seeklogo.com.svg"
   inkscape:version="1.1.1 (1:1.1+202109281949+c3084ef5ed)"
   xmlns:inkscape="http://www.inkscape.org/namespaces/inkscape"
   xmlns:sodipodi="http://sodipodi.sourceforge.net/DTD/sodipodi-0.dtd"
   xmlns="http://www.w3.org/2000/svg"
   xmlns:svg="http://www.w3.org/2000/svg">
  <defs
     id="defs26">
    <rect
       x="299.95224"
       y="63.945862"
       width="541.89172"
       height="208.31847"
       id="rect2187" />
    <rect
       x="299.95224"
       y="63.945862"
       width="541.89172"
       height="208.31847"
       id="rect844" />
  </defs>
  <sodipodi:namedview
     id="namedview24"
     pagecolor="#505050"
     bordercolor="#ffffff"
     borderopacity="1"
     inkscape:pageshadow="0"
     inkscape:pageopacity="0"
     inkscape:pagecheckerboard="1"
     showgrid="false"
     inkscape:zoom="6.0676328"
     inkscape:cx="51.75"
     inkscape:cy="13.926354"
     inkscape:window-width="1888"
     inkscape:window-height="1060"
     inkscape:window-x="32"
     inkscape:window-y="0"
     inkscape:window-maximized="1"
     inkscape:current-layer="svg22" />
  <rect
     style="fill:#49d8b1;fill-opacity:1;stroke-width:1.93189;stroke-linecap:round;paint-order:stroke markers fill"
     id="rect8679"
     width="119.58519"
     height="32"
     x="0"
     y="0"
     ry="3"
     rx="3" />
  <g
     id="g20"
     transform="matrix(0.12754555,0,0,0.12754555,3.2229906,2.8003593)">
    <rect
       fill="#ffffff"
       transform="matrix(1,0,0,-1,0,183.37646)"
       x="59.914745"
       y="19.972099"
       width="112.56709"
       height="143.43227"
       id="rect2" />
    <path
       d="M 61.267365,206.97872 H 0 v -26.1319 c 0,-43.89572 35.549415,-77.3572 79.396114,-77.3572 h 73.132296 c 11.02068,0 19.95343,8.9509 19.95343,19.98247 v 25.09157 h -34.00616 c -35.25892,0 -70.069383,24.94996 -77.208315,58.41506"
       fill="#24c1ce"
       transform="matrix(1,0,0,-1,0,310.46834)"
       id="path4" />
    <path
       d="m 59.914744,12.551749 c 0,39.598198 39.009945,70.96629 78.560936,70.96629 h 34.00616 c -0.005,11.026129 -8.93275,19.971581 -19.95706,19.971581 H 79.396114 C 35.549415,103.48962 0,70.033591 0,26.132424 V 5.1744681e-4 H 61.267365 C 60.399509,4.0710888 59.914744,8.2614897 59.914744,12.551749"
       fill="#3dd0ad"
       transform="matrix(1,0,0,-1,0,103.49014)"
       id="path6" />
    <path
       d="m 123.46068,74.440048 c -10.02755,0 -18.15598,-8.124803 -18.15598,-18.155983 0,-10.022103 8.12843,-18.155983 18.15598,-18.155983 10.02574,0 18.15599,8.13388 18.15599,18.155983 0,10.03118 -8.13025,18.155983 -18.15599,18.155983"
       fill="#404953"
       transform="matrix(1,0,0,-1,0,112.56813)"
       id="path8" />
    <path
       d="m 116.19829,54.468466 c -3.003,0 -5.44679,-2.441979 -5.44679,-5.441348 0,-3.004815 2.44379,-5.452241 5.44679,-5.452241 3.003,0 5.4468,2.447426 5.4468,5.452241 0,2.999369 -2.4438,5.441348 -5.4468,5.441348"
       fill="#ffffff"
       transform="matrix(1,0,0,-1,0,98.043342)"
       id="path10" />
    <polygon
       fill="#404953"
       transform="matrix(1,0,0,-1,0,188.82326)"
       points="101.67351,101.67402 101.67351,87.149236 150.69466,87.149236 150.69466,101.67402 "
       id="polygon12" />
    <path
       d="m 32.684401,121.6456 c -10.022103,0 -18.155983,-8.13751 -18.155983,-18.15961 -0.0036,-10.022103 8.130249,-18.152353 18.152351,-18.152353 10.025734,0 18.155983,8.133881 18.155983,18.152353 0,10.0221 -8.128433,18.15961 -18.155983,18.15961"
       fill="#ffda00"
       transform="matrix(1,0,0,-1,0,206.97924)"
       id="path14" />
    <path
       d="m 230.54104,155.76977 c -16.10436,16.10436 -36.96195,24.55415 -58.0592,25.37662 V 90.911155 l 58.0592,-58.059202 c 33.94443,33.94261 33.94443,88.975207 0,122.916007 z M 172.48184,63.132501 V 19.972099 c 11.30754,0.611856 22.4771,4.266656 32.17603,10.984369 z"
       fill="#404953"
       transform="matrix(1,0,0,-1,0,201.11849)"
       id="path16" />
    <path
       d="M 61.267365,187.00729 H 59.914744 V 127.866 c 0,-13.51532 10.95532,-24.42343 24.470634,-24.37623 l 88.096462,0.33044 v 24.77202 h -34.00616 c -35.25892,0 -70.069383,24.94996 -77.208315,58.41506"
       fill="#3a4287"
       transform="matrix(1,0,0,-1,0,290.49692)"
       id="path18" />
  </g>
  <text
     xml:space="preserve"
     id="text2185"
     style="font-style:normal;font-variant:normal;font-weight:normal;font-stretch:normal;font-size:41.0184px;line-height:1.25;font-family:Roboto;-inkscape-font-specification:Roboto;white-space:pre;shape-inside:url(#rect2187);fill:#fefefe;fill-opacity:1;stroke:none"
     transform="matrix(0.42906239,0,0,0.42906239,-85.596663,19.67781)"><tspan
       x="299.95312"
       y="99.836411"
       id="tspan914"><tspan
         style="font-weight:100;-inkscape-font-specification:'Roboto Thin'"
         id="tspan910">PO</tspan><tspan
         style="font-weight:bold;-inkscape-font-specification:'Roboto Bold'"
         id="tspan912">Editor</tspan></tspan></text>
  <g
     aria-label="POEditor"
     transform="matrix(0.42906239,0,0,0.42906239,-85.596663,-20.32219)"
     id="text842"
     style="font-size:41.0184px;line-height:1.25;font-family:Roboto;-inkscape-font-specification:Roboto;white-space:pre;shape-inside:url(#rect844);fill:#fefefe">
    <path
       d="m 305.04037,87.518874 v 12.317537 h -1.08154 V 70.674893 h 9.11297 q 4.46636,0 6.92987,2.263223 2.48353,2.243193 2.48353,6.248896 0,3.965646 -2.42345,6.128726 -2.40342,2.163079 -6.84975,2.203136 z m 0,-1.081539 h 8.03143 q 3.94562,0 6.12873,-1.902709 2.20313,-1.902709 2.20313,-5.307557 0,-3.525018 -2.20313,-5.487813 -2.18311,-1.982823 -6.12873,-1.982823 h -8.03143 z"
       style="font-weight:100;-inkscape-font-specification:'Roboto Thin'"
       id="path846" />
    <path
       d="m 349.2433,87.43876 q 0,3.78539 -1.36194,6.709553 -1.34191,2.904134 -3.84547,4.506416 -2.50357,1.582251 -5.76822,1.582251 -4.92701,0 -7.97135,-3.504989 -3.04433,-3.50499 -3.04433,-9.453459 v -4.205988 q 0,-3.765361 1.34191,-6.689524 1.36194,-2.924163 3.8655,-4.506416 2.5236,-1.602281 5.76822,-1.602281 3.26464,0 5.76821,1.602281 2.52359,1.582253 3.88553,4.526445 1.36194,2.924163 1.36194,6.669495 z m -1.08154,-4.406273 q 0,-5.287528 -2.68382,-8.472062 -2.68382,-3.204562 -7.25032,-3.204562 -4.50642,0 -7.19024,3.184534 -2.68382,3.164505 -2.68382,8.63229 v 4.266073 q 0,3.484962 1.20171,6.168783 1.22174,2.663792 3.46493,4.105845 2.2432,1.442053 5.24747,1.442053 4.5665,0 7.2303,-3.184533 2.66379,-3.184534 2.66379,-8.692376 z"
       style="font-weight:100;-inkscape-font-specification:'Roboto Thin'"
       id="path848" />
    <path
       d="m 372.05578,87.198418 h -11.53643 v 7.811121 h 13.53928 v 4.826872 H 354.5108 V 70.674893 h 19.50777 v 4.86693 h -13.49922 v 6.949894 h 11.53643 z"
       style="font-weight:bold;-inkscape-font-specification:'Roboto Bold'"
       id="path850" />
    <path
       d="m 375.92128,88.840756 q 0,-5.067214 2.26322,-8.071491 2.28325,-3.004277 6.22887,-3.004277 3.1645,0 5.22744,2.363364 v -11.05574 h 5.80827 v 30.763799 h -5.22744 l -0.2804,-2.303279 q -2.16308,2.703848 -5.56793,2.703848 -3.82545,0 -6.14875,-3.004276 -2.30328,-3.024306 -2.30328,-8.391948 z m 5.78824,0.420599 q 0,3.044334 1.06151,4.666644 1.06151,1.62231 3.08439,1.62231 2.68382,0 3.78539,-2.263222 v -8.552176 q -1.08154,-2.263222 -3.74533,-2.263222 -4.18596,0 -4.18596,6.789666 z"
       style="font-weight:bold;-inkscape-font-specification:'Roboto Bold'"
       id="path852" />
    <path
       d="M 406.04417,99.836411 H 400.2359 V 78.165558 h 5.80827 z m -6.14876,-27.278837 q 0,-1.301854 0.86123,-2.143051 0.88125,-0.841198 2.38339,-0.841198 1.48211,0 2.36337,0.841198 0.88125,0.841197 0.88125,2.143051 0,1.321882 -0.90128,2.163079 -0.88126,0.841198 -2.34334,0.841198 -1.46208,0 -2.36336,-0.841198 -0.88126,-0.841197 -0.88126,-2.163079 z"
       style="font-weight:bold;-inkscape-font-specification:'Roboto Bold'"
       id="path854" />
    <path
       d="m 417.74082,72.837973 v 5.327585 h 3.70527 v 4.246045 h -3.70527 v 10.815398 q 0,1.201711 0.46065,1.722452 0.46066,0.520742 1.76251,0.520742 0.96137,0 1.70242,-0.1402 v 4.386245 q -1.70242,0.52074 -3.50499,0.52074 -6.08866,0 -6.20884,-6.148753 V 82.411603 h -3.1645 v -4.246045 h 3.1645 v -5.327585 z"
       style="font-weight:bold;-inkscape-font-specification:'Roboto Bold'"
       id="path856" />
    <path
       d="m 423.16855,88.800699 q 0,-3.224591 1.24176,-5.748183 1.24177,-2.523593 3.56508,-3.905561 2.34334,-1.381967 5.42773,-1.381967 4.38624,0 7.15018,2.683821 2.78396,2.683821 3.10442,7.290379 l 0.0401,1.48211 q 0,4.9871 -2.78396,8.011406 -2.78396,3.004276 -7.47064,3.004276 -4.68667,0 -7.49066,-3.004276 -2.78396,-3.004277 -2.78396,-8.171634 z m 5.78824,0.420599 q 0,3.084391 1.16165,4.72673 1.16165,1.622309 3.32473,1.622309 2.103,0 3.28468,-1.602281 1.18168,-1.62231 1.18168,-5.167357 0,-3.024305 -1.18168,-4.686672 -1.18168,-1.662367 -3.32473,-1.662367 -2.12303,0 -3.28468,1.662367 -1.16165,1.642338 -1.16165,5.107271 z"
       style="font-weight:bold;-inkscape-font-specification:'Roboto Bold'"
       id="path858" />
    <path
       d="m 459.44019,83.593286 q -1.18168,-0.160229 -2.08297,-0.160229 -3.28467,0 -4.30613,2.223166 v 14.180188 h -5.78824 V 78.165558 h 5.46779 l 0.16023,2.583678 q 1.74248,-2.984248 4.82687,-2.984248 0.96137,0 1.80256,0.26037 z"
       style="font-weight:bold;-inkscape-font-specification:'Roboto Bold'"
       id="path860" />
  </g>
</svg>
