<?xml version="1.0" encoding="UTF-8" standalone="no"?>
<!-- Created with Inkscape (http://www.inkscape.org/) -->

<svg
   version="1.1"
   id="svg2"
   xml:space="preserve"
   width="121.28101"
   height="32"
   viewBox="0 0 121.281 32"
   sodipodi:docname="wordpress.svg"
   inkscape:version="1.1.1 (1:1.1+202109281949+c3084ef5ed)"
   xmlns:inkscape="http://www.inkscape.org/namespaces/inkscape"
   xmlns:sodipodi="http://sodipodi.sourceforge.net/DTD/sodipodi-0.dtd"
   xmlns="http://www.w3.org/2000/svg"
   xmlns:svg="http://www.w3.org/2000/svg"><defs
     id="defs6"><clipPath
       clipPathUnits="userSpaceOnUse"
       id="clipPath16"><path
         d="M 0,680 H 2000 V 0 H 0 Z"
         id="path14" /></clipPath><clipPath
       clipPathUnits="userSpaceOnUse"
       id="clipPath24"><path
         d="M 0,680 H 2000 V 0 H 0 Z"
         id="path22" /></clipPath></defs><sodipodi:namedview
     id="namedview4"
     pagecolor="#505050"
     bordercolor="#ffffff"
     borderopacity="1"
     inkscape:pageshadow="0"
     inkscape:pageopacity="0"
     inkscape:pagecheckerboard="1"
     showgrid="false"
     inkscape:zoom="5.7657485"
     inkscape:cx="51.771249"
     inkscape:cy="23.327414"
     inkscape:window-width="1888"
     inkscape:window-height="1060"
     inkscape:window-x="32"
     inkscape:window-y="0"
     inkscape:window-maximized="1"
     inkscape:current-layer="g8" /><g
     id="g8"
     inkscape:groupmode="layer"
     inkscape:label="WordPress-logotype-all"
     transform="matrix(1.3333333,0,0,-1.3333333,0.99999998,907.66664)"><rect
       style="fill:#ffffff;stroke:#414141;stroke-width:1.5;stroke-linecap:round;stroke-miterlimit:4;stroke-dasharray:none;stroke-opacity:1;paint-order:stroke markers fill"
       id="rect905"
       width="89.460754"
       height="22.5"
       x="0"
       y="-680"
       transform="scale(1,-1)"
       rx="2.25"
       ry="2.25" /><g
       id="g10"
       transform="matrix(0.04897752,0,0,0.04897752,-4.2472524,652.09764)"><g
         id="g12"
         clip-path="url(#clipPath16)"><g
           id="g18"><g
             id="g20" /><g
             id="g30"><g
               clip-path="url(#clipPath24)"
               opacity="0"
               id="g28"><path
                 d="M 2000,0 H 0 v 680 h 2000 z"
                 style="fill:#ffffff;fill-opacity:1;fill-rule:nonzero;stroke:none"
                 id="path26" /></g></g></g><g
           id="g32"
           transform="translate(1115.61,270.9595)"><path
             d="m 0,0 h -2.637 c -13.559,0 -15.441,3.39 -15.441,20.716 v 81.73 H 0 c 39.168,0 46.326,-28.621 46.326,-50.845 C 46.326,28.625 39.168,0 0,0 m -158.94,52.357 v 50.089 h 15.441 c 16.948,0 24.483,-11.673 24.483,-25.232 0,-13.184 -7.535,-24.857 -24.483,-24.857 z m 157.81,61.387 h -67.419 v -7.152 c 21.09,0 24.479,-4.52 24.479,-31.264 V 27.117 c 0,-26.739 -3.389,-31.636 -24.479,-31.636 -16.192,2.259 -27.117,10.924 -42.184,27.495 l -17.322,18.83 c 23.349,4.146 35.778,18.834 35.778,35.408 0,20.712 -17.7,36.53 -50.845,36.53 h -66.289 v -7.152 c 21.09,0 24.479,-4.52 24.479,-31.264 V 27.117 c 0,-26.739 -3.389,-31.636 -24.479,-31.636 v -7.154 h 74.95 v 7.154 c -21.089,0 -24.479,4.897 -24.479,31.636 v 13.559 h 6.401 l 41.806,-52.349 H -1.13 c 53.861,0 77.211,28.621 77.211,62.9 0,34.271 -23.35,62.517 -77.211,62.517"
             style="fill:#32373c;fill-opacity:1;fill-rule:nonzero;stroke:none"
             id="path34" /></g><g
           id="g36"
           transform="translate(696.4182,309.3755)"><path
             d="m 0,0 25.988,76.841 c 7.535,22.219 4.145,28.621 -19.96,28.621 v 7.535 h 70.809 v -7.535 c -23.728,0 -29.377,-5.65 -38.794,-33.145 L -4.898,-56.494 h -4.893 l -38.42,117.89 -39.168,-117.89 h -4.898 l -41.805,128.811 c -9.04,27.495 -15.067,33.145 -36.913,33.145 v 7.535 h 83.616 v -7.535 c -22.224,0 -28.251,-5.272 -20.338,-28.621 L -82.486,0 -44.444,112.997 h 7.158 z"
             style="fill:#32373c;fill-opacity:1;fill-rule:nonzero;stroke:none"
             id="path38" /></g><g
           id="g40"
           transform="translate(824.4691,377.9248)"><path
             d="m 0,0 c -34.648,0 -46.703,-31.259 -46.703,-55.738 0,-24.862 12.055,-55.747 46.703,-55.747 35.031,0 47.082,30.885 47.082,55.747 C 47.082,-31.259 35.031,0 0,0 m 0,-123.536 c -41.427,0 -75.328,30.507 -75.328,67.798 0,36.908 33.901,67.419 75.328,67.419 41.432,0 75.329,-30.511 75.329,-67.419 0,-37.291 -33.897,-67.798 -75.329,-67.798"
             style="fill:#32373c;fill-opacity:1;fill-rule:nonzero;stroke:none"
             id="path42" /></g><g
           id="g44"
           transform="translate(1276.4276,408.8141)"><path
             d="M 0,0 H -21.468 V -65.538 H 0 c 21.094,0 30.885,14.689 30.885,32.389 C 30.885,-15.071 21.094,0 0,0 m 8.287,-141.996 v -7.531 h -86.249 v 7.531 c 25.236,0 29.755,6.401 29.755,44.07 v 60.258 c 0,37.668 -4.519,43.691 -29.755,43.691 v 7.536 H 0 c 38.794,0 60.266,-19.965 60.266,-46.708 0,-25.988 -21.472,-46.326 -60.266,-46.326 h -21.468 v -18.451 c 0,-37.669 4.52,-44.07 29.755,-44.07"
             style="fill:#32373c;fill-opacity:1;fill-rule:nonzero;stroke:none"
             id="path46" /></g><g
           id="g48"
           transform="translate(1395.8263,323.3165)"><path
             d="m 0,0 v 50.089 h 15.44 c 16.948,0 24.484,-11.673 24.484,-25.232 C 39.924,11.673 32.388,0 15.44,0 Z m 199.611,-28.63 -1.882,-6.779 c -3.389,-12.429 -7.535,-16.948 -34.274,-16.948 h -5.275 c -19.582,0 -22.972,4.519 -22.972,31.263 v 17.322 c 29.377,0 31.637,-2.633 31.637,-22.22 h 7.157 v 56.121 h -7.157 c 0,-19.586 -2.26,-22.22 -31.637,-22.22 v 42.18 h 20.711 c 26.744,0 30.886,-4.52 34.275,-16.948 l 1.886,-7.153 h 6.023 L 195.47,61.387 H 84.737 v -7.153 c 21.09,0 24.479,-4.519 24.479,-31.263 V -25.24 c 0,-24.462 -2.881,-30.624 -19.508,-31.502 -15.805,2.412 -26.656,11.034 -41.501,27.361 l -17.327,18.83 c 23.354,4.146 35.783,18.834 35.783,35.408 0,20.712 -17.7,36.53 -50.845,36.53 h -66.289 v -7.153 c 21.089,0 24.479,-4.519 24.479,-31.263 V -25.24 c 0,-26.739 -3.39,-31.636 -24.479,-31.636 v -7.154 h 74.95 v 7.154 C 3.39,-56.876 0,-51.979 0,-25.24 v 13.559 H 6.401 L 48.207,-64.03 h 154.794 l 2.26,35.4 z"
             style="fill:#32373c;fill-opacity:1;fill-rule:nonzero;stroke:none"
             id="path50" /></g><g
           id="g52"
           transform="translate(1671.896,254.389)"><path
             d="M 0,0 C -15.066,0 -28.251,7.909 -33.901,12.807 -35.783,10.921 -39.172,5.271 -39.924,0 h -7.157 v 51.975 h 7.531 c 3.016,-24.858 20.338,-39.546 42.562,-39.546 12.05,0 21.846,6.779 21.846,18.078 0,9.791 -8.666,17.327 -24.106,24.48 l -21.468,10.169 c -15.067,7.161 -26.365,19.59 -26.365,36.16 0,18.078 16.948,33.519 40.302,33.519 12.429,0 22.971,-4.52 29.377,-9.791 1.881,1.508 3.763,5.654 4.898,10.173 h 7.153 V 90.769 h -7.91 c -2.637,17.704 -12.428,32.393 -32.388,32.393 -10.547,0 -20.343,-6.028 -20.343,-15.445 0,-9.791 7.91,-15.062 25.992,-23.349 L 20.712,74.199 C 38.794,65.538 45.947,51.597 45.947,40.298 45.947,16.57 25.232,0 0,0"
             style="fill:#32373c;fill-opacity:1;fill-rule:nonzero;stroke:none"
             id="path54" /></g><g
           id="g56"
           transform="translate(1785.7819,254.389)"><path
             d="M 0,0 C -15.066,0 -28.251,7.909 -33.901,12.807 -35.782,10.921 -39.172,5.271 -39.924,0 h -7.158 v 51.975 h 7.532 c 3.016,-24.858 20.338,-39.546 42.562,-39.546 12.05,0 21.846,6.779 21.846,18.078 0,9.791 -8.666,17.327 -24.106,24.48 l -21.468,10.169 c -15.066,7.161 -26.366,19.59 -26.366,36.16 0,18.078 16.949,33.519 40.303,33.519 12.429,0 22.971,-4.52 29.377,-9.791 1.881,1.508 3.763,5.654 4.893,10.173 h 7.158 V 90.769 h -7.91 c -2.638,17.704 -12.429,32.393 -32.388,32.393 -10.547,0 -20.343,-6.028 -20.343,-15.445 0,-9.791 7.909,-15.062 25.992,-23.349 L 20.712,74.199 C 38.794,65.538 45.947,51.597 45.947,40.298 45.947,16.57 25.231,0 0,0"
             style="fill:#32373c;fill-opacity:1;fill-rule:nonzero;stroke:none"
             id="path58" /></g><g
           id="g60"
           transform="translate(338.9828,510.5085)"><path
             d="m 0,0 c -93.608,0 -169.492,-75.884 -169.492,-169.492 0,-93.607 75.884,-169.491 169.492,-169.491 93.608,0 169.492,75.884 169.492,169.491 C 169.492,-75.884 93.608,0 0,0 m 0,-10.169 c 21.513,0 42.377,-4.212 62.012,-12.517 9.439,-3.992 18.543,-8.933 27.059,-14.687 8.439,-5.701 16.375,-12.249 23.587,-19.461 7.212,-7.212 13.759,-15.148 19.46,-23.586 5.754,-8.517 10.696,-17.621 14.688,-27.059 8.305,-19.636 12.516,-40.5 12.516,-62.013 0,-21.512 -4.211,-42.376 -12.516,-62.012 -3.992,-9.438 -8.934,-18.542 -14.688,-27.059 -5.701,-8.438 -12.248,-16.374 -19.46,-23.586 -7.212,-7.212 -15.148,-13.76 -23.587,-19.461 -8.516,-5.754 -17.62,-10.695 -27.059,-14.687 -19.635,-8.305 -40.499,-12.517 -62.012,-12.517 -21.513,0 -42.377,4.212 -62.012,12.517 -9.438,3.992 -18.543,8.933 -27.059,14.687 -8.439,5.701 -16.375,12.249 -23.587,19.461 -7.212,7.212 -13.759,15.148 -19.46,23.586 -5.754,8.517 -10.696,17.621 -14.688,27.059 -8.305,19.636 -12.516,40.5 -12.516,62.012 0,21.513 4.211,42.377 12.516,62.013 3.992,9.438 8.934,18.542 14.688,27.059 5.701,8.438 12.248,16.374 19.46,23.586 7.212,7.212 15.148,13.76 23.587,19.461 8.516,5.754 17.621,10.695 27.059,14.687 19.635,8.305 40.499,12.517 62.012,12.517"
             style="fill:#32373c;fill-opacity:1;fill-rule:nonzero;stroke:none"
             id="path62" /></g><g
           id="g64"
           transform="translate(462.9282,408.7802)"><path
             d="m 0,0 c 0.606,-4.498 0.95,-9.324 0.95,-14.523 0,-14.327 -2.685,-30.439 -10.744,-50.588 l -43.139,-124.727 c 41.992,24.481 70.231,69.973 70.231,122.08 C 17.298,-43.201 11.022,-20.116 0,0 m -121.464,-80.112 -42.384,-123.139 c 12.658,-3.724 26.039,-5.755 39.903,-5.755 16.448,0 32.226,2.839 46.906,8.008 -0.378,0.604 -0.726,1.246 -1.014,1.946 z m 92.869,19.477 c 0,17.462 -6.272,29.547 -11.643,38.952 -7.161,11.64 -13.875,21.488 -13.875,33.127 0,12.982 9.845,25.067 23.719,25.067 0.627,0 1.22,-0.075 1.829,-0.114 -25.129,23.025 -58.61,37.083 -95.38,37.083 -49.347,0 -92.757,-25.32 -118.013,-63.66 3.317,-0.105 6.441,-0.171 9.09,-0.171 14.771,0 37.645,1.795 37.645,1.795 7.61,0.446 8.51,-10.74 0.903,-11.639 0,0 -7.654,-0.897 -16.164,-1.342 l 51.432,-152.992 30.914,92.7 -22.004,60.292 c -7.61,0.445 -14.814,1.342 -14.814,1.342 -7.614,0.449 -6.722,12.085 0.896,11.639 0,0 23.32,-1.795 37.198,-1.795 14.77,0 37.649,1.795 37.649,1.795 7.613,0.446 8.509,-10.74 0.899,-11.639 0,0 -7.661,-0.897 -16.164,-1.342 l 51.044,-151.827 14.571,46.17 c 6.473,20.178 10.268,34.474 10.268,46.559 m -236.593,-7.123 c 0,-55.904 32.486,-104.221 79.607,-127.113 l -67.377,184.594 c -7.837,-17.565 -12.23,-37.004 -12.23,-57.481"
             style="fill:#32373c;fill-opacity:1;fill-rule:nonzero;stroke:none"
             id="path66" /></g></g></g></g></svg>
